<svg xmlns="http://www.w3.org/2000/svg" width="1600" height="900" viewBox="0 0 1600 900" role="img" aria-label="SolixBar abgedockte Leiste auf dem Schreibtisch">
  <defs>
    <linearGradient id="page" x1="0" y1="0" x2="1" y2="1">
      <stop offset="0" stop-color="#f6fbf6"/>
      <stop offset="0.52" stop-color="#eef6f4"/>
      <stop offset="1" stop-color="#f7f2e6"/>
    </linearGradient>
    <linearGradient id="bar" x1="0" y1="0" x2="1" y2="0">
      <stop offset="0" stop-color="#dff7e6"/>
      <stop offset="0.42" stop-color="#eef6f2"/>
      <stop offset="0.72" stop-color="#eef5ff"/>
      <stop offset="1" stop-color="#fff0e9"/>
    </linearGradient>
    <filter id="shadow" x="-10%" y="-80%" width="120%" height="260%">
      <feDropShadow dx="0" dy="22" stdDeviation="20" flood-color="#17211d" flood-opacity="0.22"/>
      <feDropShadow dx="0" dy="2" stdDeviation="2" flood-color="#17211d" flood-opacity="0.18"/>
    </filter>
  </defs>
  <rect width="1600" height="900" fill="url(#page)"/>
  <g opacity="0.86">
    <rect x="230" y="128" width="1140" height="72" rx="12" fill="#ffffff"/>
    <rect x="230" y="236" width="1010" height="48" rx="10" fill="#ffffff"/>
    <rect x="230" y="326" width="1190" height="60" rx="12" fill="#ffffff"/>
    <rect x="230" y="612" width="1080" height="56" rx="12" fill="#ffffff"/>
    <rect x="230" y="704" width="930" height="46" rx="10" fill="#ffffff"/>
  </g>
  <g opacity="0.44" fill="#789188">
    <rect x="266" y="151" width="450" height="20" rx="10"/>
    <rect x="266" y="251" width="680" height="16" rx="8"/>
    <rect x="266" y="347" width="760" height="18" rx="9"/>
    <rect x="266" y="632" width="640" height="16" rx="8"/>
    <rect x="266" y="720" width="540" height="14" rx="7"/>
  </g>
  <g filter="url(#shadow)">
    <rect x="110" y="446" width="1380" height="98" rx="27" fill="url(#bar)" stroke="#5d736a" stroke-opacity="0.58" stroke-width="2"/>
    <rect x="112" y="448" width="1376" height="94" rx="25" fill="#ffffff" opacity="0.18"/>
  </g>
  <g font-family="-apple-system, BlinkMacSystemFont, 'Segoe UI', sans-serif" font-size="28" font-weight="760" dominant-baseline="middle">
    <rect x="146" y="481" width="21" height="21" rx="5" fill="#73d783"/>
    <rect x="151" y="486" width="11" height="11" rx="2" fill="#dff7e6"/>
    <text x="184" y="494" fill="#26302b">Akku 95%</text>
    <path d="M330 472 L350 472 L350 501 L365 501 L340 527 L315 501 L330 501 Z" fill="#09a949"/>
    <circle cx="397" cy="494" r="10" fill="#ffb21f"/>
    <g stroke="#ffb21f" stroke-width="4" stroke-linecap="round">
      <line x1="397" y1="475" x2="397" y2="466"/>
      <line x1="397" y1="522" x2="397" y2="513"/>
      <line x1="378" y1="494" x2="369" y2="494"/>
      <line x1="425" y1="494" x2="416" y2="494"/>
      <line x1="383" y1="480" x2="376" y2="473"/>
      <line x1="418" y1="515" x2="411" y2="508"/>
      <line x1="411" y1="480" x2="418" y2="473"/>
      <line x1="376" y1="515" x2="383" y2="508"/>
    </g>
    <text x="430" y="494" fill="#9bc32e">PV 790W</text>
    <path d="M620 503 L620 488 L641 472 L662 488 L662 503 L651 503 L651 490 L631 490 L631 503 Z" fill="#1782ff"/>
    <text x="674" y="494" fill="#fb8d13">Haus 790W</text>
    <circle cx="885" cy="494" r="5" fill="#919895"/>
    <path d="M920 488 L938 488 L938 477 L952 477 L952 511 L938 511 L938 501 L920 501 Z" fill="#7b8280"/>
    <text x="965" y="494" fill="#737b78">Netz 0 W</text>
    <circle cx="1131" cy="494" r="5" fill="#919895"/>
    <circle cx="1170" cy="494" r="14" fill="#9a9f9d"/>
    <text x="1202" y="494" fill="#737b78">Fluss 0 W</text>
    <text x="1350" y="494" fill="#09a949">Flow ↓</text>
    <circle cx="1439" cy="494" r="5" fill="#919895"/>
  </g>
  <g transform="translate(1480 470)" stroke="#6e7773" stroke-width="7" stroke-linecap="round">
    <line x1="0" y1="0" x2="26" y2="26"/>
    <line x1="26" y1="0" x2="0" y2="26"/>
  </g>
  <text x="110" y="610" font-family="-apple-system, BlinkMacSystemFont, 'Segoe UI', sans-serif" font-size="28" font-weight="820" fill="#17211d">Abgedockte Leiste</text>
  <text x="110" y="650" font-family="-apple-system, BlinkMacSystemFont, 'Segoe UI', sans-serif" font-size="21" fill="#5b6962">Bleibt auf dem Schreibtisch sichtbar, liegt aber unter normalen App-Fenstern.</text>
</svg>
