<svg xmlns="http://www.w3.org/2000/svg" viewBox="0 0 1200 820" role="img" aria-labelledby="title desc">
  <title id="title">SolixBar App Vorschau</title>
  <desc id="desc">Eine stilisierte macOS Menueleiste mit SolixBar Dashboard und Graph.</desc>
  <defs>
    <linearGradient id="bg" x1="0" x2="1" y1="0" y2="1">
      <stop offset="0" stop-color="#f9fff9"/>
      <stop offset="0.52" stop-color="#eef6f2"/>
      <stop offset="1" stop-color="#edf4ff"/>
    </linearGradient>
    <filter id="shadow" x="-20%" y="-20%" width="140%" height="140%">
      <feDropShadow dx="0" dy="24" stdDeviation="28" flood-color="#12201a" flood-opacity="0.18"/>
    </filter>
  </defs>
  <rect width="1200" height="820" rx="32" fill="url(#bg)"/>
  <rect x="110" y="94" width="980" height="54" rx="18" fill="#161d19" filter="url(#shadow)"/>
  <circle cx="143" cy="121" r="7" fill="#ff6257"/>
  <circle cx="166" cy="121" r="7" fill="#ffbd2e"/>
  <circle cx="189" cy="121" r="7" fill="#28c840"/>
  <text x="730" y="128" fill="#edf7f0" font-family="Inter, Arial, sans-serif" font-size="22" font-weight="700">82%</text>
  <text x="787" y="128" fill="#36c767" font-family="Inter, Arial, sans-serif" font-size="22" font-weight="700">642W</text>
  <text x="858" y="128" fill="#f16b5f" font-family="Inter, Arial, sans-serif" font-size="22" font-weight="700">Netz 86W</text>
  <text x="976" y="128" fill="#36c767" font-family="Inter, Arial, sans-serif" font-size="22" font-weight="900">↓</text>
  <text x="1002" y="128" fill="#f1c452" font-family="Inter, Arial, sans-serif" font-size="22" font-weight="900">↓</text>
  <text x="1028" y="128" fill="#f16b5f" font-family="Inter, Arial, sans-serif" font-size="22" font-weight="900">↑</text>
  <g filter="url(#shadow)">
    <rect x="250" y="190" width="700" height="520" rx="26" fill="#fbfcf9"/>
    <rect x="250" y="190" width="700" height="74" rx="26" fill="#111815"/>
    <text x="288" y="237" fill="#ffffff" font-family="Inter, Arial, sans-serif" font-size="25" font-weight="800">Anker SOLIX</text>
    <text x="769" y="237" fill="#9fb2a8" font-family="Inter, Arial, sans-serif" font-size="16" font-weight="700">gerade aktualisiert</text>
    <rect x="288" y="294" width="264" height="142" rx="18" fill="#eaf6ef" stroke="#c8e4d3"/>
    <text x="320" y="337" fill="#2c8f63" font-family="Inter, Arial, sans-serif" font-size="22" font-weight="850">Akku</text>
    <text x="320" y="394" fill="#17211d" font-family="Inter, Arial, sans-serif" font-size="58" font-weight="900">82%</text>
    <rect x="586" y="294" width="326" height="142" rx="18" fill="#fff4d7" stroke="#efd58e"/>
    <text x="618" y="337" fill="#b77908" font-family="Inter, Arial, sans-serif" font-size="22" font-weight="850">Solar</text>
    <text x="618" y="394" fill="#17211d" font-family="Inter, Arial, sans-serif" font-size="58" font-weight="900">642 W</text>
    <rect x="288" y="472" width="624" height="178" rx="18" fill="#ffffff" stroke="#d9e2dc"/>
    <line x1="334" y1="602" x2="866" y2="602" stroke="#d9e2dc"/>
    <line x1="334" y1="546" x2="866" y2="546" stroke="#d9e2dc"/>
    <line x1="334" y1="490" x2="866" y2="490" stroke="#d9e2dc"/>
    <text x="804" y="492" fill="#8d9a93" font-family="Inter, Arial, sans-serif" font-size="14" font-weight="700">2000 W</text>
    <text x="816" y="604" fill="#8d9a93" font-family="Inter, Arial, sans-serif" font-size="14" font-weight="700">0 W</text>
    <text x="334" y="632" fill="#8d9a93" font-family="Inter, Arial, sans-serif" font-size="13" font-weight="700">00:00</text>
    <text x="590" y="632" fill="#8d9a93" font-family="Inter, Arial, sans-serif" font-size="13" font-weight="700">12:00</text>
    <text x="834" y="632" fill="#8d9a93" font-family="Inter, Arial, sans-serif" font-size="13" font-weight="700">Jetzt</text>
    <path d="M334 591 C412 578 448 560 520 564 C594 568 630 522 705 536 C772 548 812 508 866 516" fill="none" stroke="#2c8f63" stroke-width="7" stroke-linecap="round"/>
    <path d="M334 594 C410 530 459 538 523 500 C590 462 645 508 710 492 C779 474 818 522 866 497" fill="none" stroke="#e4a72f" stroke-width="7" stroke-linecap="round"/>
    <path d="M334 574 C415 588 469 610 538 598 C612 585 672 612 735 594 C792 578 826 590 866 579" fill="none" stroke="#2d71d6" stroke-width="7" stroke-linecap="round"/>
  </g>
</svg>
