<svg xmlns="http://www.w3.org/2000/svg" viewBox="0 0 760 1040" role="img" aria-labelledby="title desc">
  <title id="title">SolixBar Desktop Widget</title>
  <desc id="desc">Ein schwebendes SolixBar Desktop Widget mit sichtbaren Griffen zum Ziehen am Rand.</desc>
  <defs>
    <linearGradient id="page" x1="0" x2="1" y1="0" y2="1">
      <stop offset="0" stop-color="#f8fbf8"/>
      <stop offset="1" stop-color="#eef5ff"/>
    </linearGradient>
    <filter id="shadow" x="-20%" y="-20%" width="140%" height="140%">
      <feDropShadow dx="0" dy="24" stdDeviation="28" flood-color="#12201a" flood-opacity="0.18"/>
    </filter>
  </defs>
  <rect width="760" height="1040" rx="28" fill="url(#page)"/>
  <g filter="url(#shadow)">
    <rect x="142" y="74" width="476" height="884" rx="26" fill="#fbfcf9" stroke="#d9e2dc" stroke-width="2"/>
    <rect x="142" y="74" width="476" height="52" rx="26" fill="#f4f7f5"/>
    <circle cx="174" cy="100" r="7" fill="#ff6257"/>
    <circle cx="198" cy="100" r="7" fill="#ffbd2e"/>
    <circle cx="222" cy="100" r="7" fill="#28c840"/>
    <text x="174" y="174" fill="#17211d" font-family="Inter, Arial, sans-serif" font-size="32" font-weight="900">Home</text>
    <rect x="482" y="146" width="96" height="34" rx="17" fill="#eaf6ef" stroke="#8bcaa6"/>
    <circle cx="506" cy="163" r="6" fill="#2c8f63"/>
    <text x="520" y="169" fill="#17211d" font-family="Inter, Arial, sans-serif" font-size="14" font-weight="800">online</text>
    <text x="174" y="206" fill="#5b6962" font-family="Inter, Arial, sans-serif" font-size="16" font-weight="650">Aktualisiert gerade eben</text>

    <rect x="174" y="244" width="184" height="116" rx="16" fill="#eaf6ef" stroke="#b7dcc6"/>
    <text x="204" y="286" fill="#2c8f63" font-family="Inter, Arial, sans-serif" font-size="18" font-weight="900">Akku</text>
    <text x="204" y="334" fill="#17211d" font-family="Inter, Arial, sans-serif" font-size="38" font-weight="900">67 %</text>
    <rect x="382" y="244" width="164" height="116" rx="16" fill="#fff4d7" stroke="#efd58e"/>
    <text x="412" y="286" fill="#b77908" font-family="Inter, Arial, sans-serif" font-size="18" font-weight="900">Solar</text>
    <text x="412" y="334" fill="#17211d" font-family="Inter, Arial, sans-serif" font-size="38" font-weight="900">30 W</text>

    <g font-family="Inter, Arial, sans-serif">
      <rect x="174" y="386" width="184" height="82" rx="14" fill="#edf4ff" stroke="#c8d9f7"/>
      <text x="204" y="420" fill="#2d71d6" font-size="15" font-weight="900">Haus</text>
      <text x="204" y="452" fill="#17211d" font-size="24" font-weight="850">500 W</text>
      <rect x="382" y="386" width="164" height="82" rx="14" fill="#f3f5f4" stroke="#d9e2dc"/>
      <text x="412" y="420" fill="#5b6962" font-size="15" font-weight="900">Netzbezug</text>
      <text x="412" y="452" fill="#17211d" font-size="24" font-weight="850">0 W</text>
      <rect x="174" y="486" width="184" height="82" rx="14" fill="#ffecea" stroke="#f4bbb7"/>
      <text x="204" y="520" fill="#d14b43" font-size="15" font-weight="900">Batteriefluss</text>
      <text x="204" y="552" fill="#17211d" font-size="24" font-weight="850">-470 W</text>
      <rect x="382" y="486" width="164" height="82" rx="14" fill="#f3edf9" stroke="#dcc7ee"/>
      <text x="412" y="520" fill="#7c4ab6" font-size="15" font-weight="900">Heutiger Ertrag</text>
      <text x="412" y="552" fill="#17211d" font-size="24" font-weight="850">0.00 kWh</text>
    </g>

    <rect x="174" y="606" width="372" height="260" rx="16" fill="#ffffff" stroke="#d9e2dc"/>
    <text x="204" y="648" fill="#17211d" font-family="Inter, Arial, sans-serif" font-size="22" font-weight="900">Verlauf 24 Stunden</text>
    <line x1="214" y1="802" x2="514" y2="802" stroke="#d9e2dc" stroke-width="2"/>
    <line x1="214" y1="748" x2="514" y2="748" stroke="#d9e2dc" stroke-width="2"/>
    <line x1="214" y1="694" x2="514" y2="694" stroke="#d9e2dc" stroke-width="2"/>
    <path d="M214 790 C260 772 284 748 330 754 C376 760 400 714 444 724 C478 732 496 704 514 710" fill="none" stroke="#2c8f63" stroke-width="6" stroke-linecap="round"/>
    <path d="M214 802 C262 746 284 700 332 688 C374 676 406 724 446 708 C480 696 498 744 514 752" fill="none" stroke="#e4a72f" stroke-width="6" stroke-linecap="round"/>
    <path d="M214 776 C260 790 288 812 334 796 C378 780 410 806 450 786 C486 768 500 778 514 770" fill="none" stroke="#2d71d6" stroke-width="6" stroke-linecap="round"/>

    <g stroke="#8b9791" stroke-width="2" stroke-linecap="round">
      <line x1="604" y1="214" x2="604" y2="840"/>
      <line x1="594" y1="890" x2="546" y2="938"/>
      <line x1="604" y1="900" x2="566" y2="938"/>
      <line x1="244" y1="944" x2="520" y2="944"/>
    </g>
    <text x="392" y="930" fill="#5b6962" font-family="Inter, Arial, sans-serif" font-size="15" font-weight="800">am Rand ziehen</text>
  </g>
</svg>
